# xmcd CD database file generated by Grip 3.0.5
# 
# Track frame offsets:
#       150
#       17792
#       31820
#       47855
#       63795
#       84427
#       99492
#       115202
#       130957
#       142667
#       153935
#       172320
#       188470
# 
# Disc length: 2781 seconds
# 
# Revision: 2
# Processed by: cddbd v1.4PL0 Copyright (c) Steve Scherf et al.
# Submitted via: Grip 3.0.5
# 
DISCID=9f0adb0d
DTITLE=Kulseth and Lønhøiden Almenning - Kulseth and Lønhøiden Almenning
DYEAR=1998
DGENRE=Country
TTITLE0=Ensom i vind
TTITLE1=10 kniver
TTITLE2=En vandrers bønn
TTITLE3=Ned ned ned
TTITLE4=Fri som Frank
TTITLE5=Høyt over byen
TTITLE6=Tømmer
TTITLE7=Lille Jenny
TTITLE8=(Jeg så deg) på gata i går
TTITLE9=Trøst min sang
TTITLE10=Usynlig venn
TTITLE11=Et liv i resymé
TTITLE12=Syndens by
EXTD=
EXTT0=
EXTT1=
EXTT2=
EXTT3=
EXTT4=
EXTT5=
EXTT6=
EXTT7=
EXTT8=
EXTT9=
EXTT10=
EXTT11=
EXTT12=
PLAYORDER=
